# AST/ASF file generated using VICON BodyLanguage
# -----------------------------------------------
:version 1.10
:name VICON
:units
  mass 1.0
  length 0.45
  angle deg
:documentation
   .ast/.asf automatically generated from VICON data using
   VICON BodyBuilder and BodyLanguage model FoxedUp or BRILLIANT.MOD
:root
   order TX TY TZ RX RY RZ
   axis XYZ
   position 0 0 0  
   orientation 0 0 0 
:bonedata
  begin
     id 1 
     name lhipjoint
     direction 0.662698 -0.695252 0.27831 
     length 2.53073 
     axis 0 0 0  XYZ
  end
  begin
     id 2 
     name lfemur
     direction 0.34202 -0.939693 0  
     length 7.16147  
     axis 0 0 20  XYZ
    dof rx ry rz
    limits (-160.0 20.0)
           (-70.0 70.0)
           (-60.0 70.0)
  end
  begin
     id 3 
     name ltibia
     direction 0.34202 -0.939693 0   
     length 7.63967   
     axis 0 0 20   XYZ
    dof rx
    limits (-10.0 170.0)
  end
  begin
     id 4 
     name lfoot
     direction 0.0938457 -0.257721 0.961651   
     length 1.89793   
     axis -90 7.62852e-016 20   XYZ
    dof rx rz
    limits (-45.0 90.0)
           (-70.0 20.0)
  end
  begin
     id 5 
     name ltoes
     direction -0.00116841 -0.0030592 0.999995   
     length 0.955649   
     axis -90 7.62852e-016 20   XYZ
    dof rx
    limits (-90.0 20.0)
  end
  begin
     id 6 
     name rhipjoint
     direction -0.649445 -0.705948 0.282592   
     length 2.49238  
     axis 0 0 0  XYZ 
  end
  begin
     id 7 
     name rfemur
     direction -0.34202 -0.939693 0   
     length 6.90728   
     axis 0 0 -20   XYZ
    dof rx ry rz
    limits (-160.0 20.0)
           (-70.0 70.0)
           (-70.0 60.0)
  end
  begin
     id 8 
     name rtibia
     direction -0.34202 -0.939693 0   
     length 7.72868   
     axis 0 0 -20   XYZ
    dof rx
    limits (-10.0 170.0)
 end
 begin
     id 9 
     name rfoot
     direction -0.0920068 -0.252865 0.963117   
     length 1.97476  
     axis -90 -7.62852e-016 -20   XYZ
    dof rx rz
    limits (-45.0 90.0)
           (-20.0 70.0)
  end
  begin
     id 10 
     name rtoes
     direction 0.000391322 0.00230649 0.999997   
     length 0.992641   
     axis -90 -7.62852e-016 -20   XYZ
    dof rx
    limits (-90.0 20.0)
  end
  begin
     id 11 
     name lowerback
     direction -0.00875327 0.998321 -0.0572635   
     length 2.20024   
     axis 0 0 0   XYZ
    dof rx ry rz
    limits (-20.0 45.0)
           (-30.0 30.0)
           (-30.0 30.0)
  end
  begin
     id 12 
     name upperback
     direction 0.00753931 0.999972 -0.000360425   
     length 2.20538   
     axis 0 0 0   XYZ
    dof rx ry rz
    limits (-20.0 45.0)
           (-30.0 30.0)
           (-30.0 30.0)
  end
  begin
     id 13 
     name thorax
     direction 0.0117767 0.999601 0.0256663   
     length 2.21508   
     axis 0 0 0   XYZ
    dof rx ry rz
    limits (-20.0 45.0)
           (-30.0 30.0)
           (-30.0 30.0)
  end
  begin
     id 14 
     name lowerneck
     direction 0.060228 0.994909 0.0807986   
     length 1.7607   
     axis 0 0 0   XYZ
    dof rx ry rz
    limits (-20.0 45.0)
           (-30.0 30.0)
           (-30.0 30.0)
  end
  begin
     id 15 
     name upperneck
     direction -0.0563647 0.959594 -0.275685   
     length 1.75612   
     axis 0 0 0   XYZ
    dof rx ry rz
    limits (-20.0 45.0)
           (-30.0 30.0)
           (-30.0 30.0)
  end
  begin
     id 16
     name head
     direction -0.0161544 0.99458 -0.102714  
     length 1.79288  
     axis 0 0 0   XYZ
    dof rx ry rz
    limits (-20.0 45.0)
           (-30.0 30.0)
           (-30.0 30.0)
  end
  begin
     id 17 
     name lclavicle
     direction 0.93913 0.332189 -0.087669  
     length 3.52087  
     axis 0 0 0   XYZ
    dof ry rz
    limits (-20.0 10.0)
           (0.0 20.0)
  end
  begin
     id 18 
     name lhumerus
     direction 1 -4.48974e-011 -2.70836e-027   
     length 5.35289   
     axis -180 -30 -90   XYZ
    dof rx ry rz
    limits (-60.0 90.0)
           (-90.0 90.0)
           (-90.0 90.0)
  end
  begin
     id 19
     name lradius
     direction 1 -4.48961e-011 -9.76021e-027   
     length 3.27727   
     axis -180 -30 -90   XYZ
    dof rx
    limits (-10.0 170.0)
  end
  begin
     id 20
     name lwrist
     direction 1 -4.49103e-011 -2.23668e-026   
     length 1.63864   
     axis 1.44924e-014 90 90   XYZ
    dof ry
    limits (-180.0 0.0)
 end
  begin
     id 21 
     name lhand
     direction 1 3.0697e-005 0.000161777   
     length 0.54443   
     axis 2.85318e-014 90 90   XYZ
    dof rx rz
    limits (-90.0 90.0)
           (-45.0 45.0)
  end
  begin
     id 22 
     name lfingers
     direction 1 -4.49027e-011 -8.9447e-026   
     length 0.438912   
     axis 5.70628e-014 90 90   XYZ
    dof rx
    limits (0.0 90.0)
  end
  begin
     id 23
     name lthumb
     direction 0.707058 2.6516e-005 0.707156   
     length 0.630274   
     axis -90 45 -3.53137e-014   XYZ
    dof rx rz
    limits (-45.0 45.0)
           (-45.0 45.0)
  end
  begin
     id 24 
     name rclavicle
     direction -0.95274 0.284984 -0.105215   
     length 3.43401  
     axis 0 0 0   XYZ 
    dof ry rz
    limits (-10.0 20.0)
           (-20.0 0.0)
  end
  begin
     id 25 
     name rhumerus
     direction -0.999999 -0.000575019 -0.00106829  
     length 5.52077   
     axis -180 30 90   XYZ
    dof rx ry rz
    limits (-90.0 60.0)
           (-90.0 90.0)
           (-90.0 90.0)
  end
  begin
     id 26 
     name rradius
     direction -1 -4.4879e-011 -6.35415e-027   
     length 3.32364   
     axis -180 30 90   XYZ
    dof rx
    limits (-10.0 170.0)
  end
  begin
     id 27 
     name rwrist
     direction -1 -4.49048e-011 -9.98542e-027   
     length 1.66182   
     axis 6.32482e-015 -90 -90   XYZ
    dof ry
    limits (-180.0 0.0)
  end
  begin
     id 28
     name rhand
     direction -1 -4.48978e-011 -1.99771e-026   
     length 0.732235   
     axis 1.27479e-014 -90 -90   XYZ
    dof rx rz
    limits (-90.0 90.0)
           (-45.0 45.0)
  end
  begin
     id 29
     name rfingers
     direction -1 -4.49144e-011 -3.99245e-026   
     length 0.590347   
     axis 2.5496e-014 -90 -90   XYZ
    dof rx
    limits (0.0 90.0)
  end
  begin
     id 30
     name rthumb
     direction -0.707107 -6.35121e-011 0.707107   
     length 0.847624   
     axis -90 -45 -2.82974e-014   XYZ
    dof rx rz
    limits (-45.0 45.0)
           (-45.0 45.0)
  end
:hierarchy
  begin
    root lhipjoint rhipjoint lowerback
    lhipjoint lfemur
    lfemur ltibia
    ltibia lfoot
    lfoot ltoes
    rhipjoint rfemur
    rfemur rtibia
    rtibia rfoot
    rfoot rtoes
    lowerback upperback
    upperback thorax
    thorax lowerneck lclavicle rclavicle
    lowerneck upperneck
    upperneck head
    lclavicle lhumerus
    lhumerus lradius
    lradius lwrist
    lwrist lhand lthumb
    lhand lfingers
    rclavicle rhumerus
    rhumerus rradius
    rradius rwrist
    rwrist rhand rthumb
    rhand rfingers
  end

#!OML:ASF G:\Work\Work\Patient Classification 1\Elijah\terrain1\Elijah.ASF
:FULLY-SPECIFIED
:DEGREES
83
root 16.05 23.4677 -6.82244 7.28114 -2.16863 -4.65925
lowerback 4.29548 1.57612 2.08602
upperback -0.0895178 2.19341 -0.479634
thorax -2.40206 1.06546 -1.79875
lowerneck -21.9877 9.80658 7.8254
upperneck 20.9499 14.3276 -11.8286
head 12.0197 5.65931 -3.1474
rclavicle 1.63997e-014 8.74653e-015
rhumerus -38.2526 3.73217 -90.2051
rradius 33.0873
rwrist -2.3285
rhand -14.7678 21.6863
rfingers 7.12502
rthumb 11.3887 -7.98442
lclavicle 1.63997e-014 8.74653e-015
lhumerus -37.6698 26.0668 66.1008
lradius 18.5936
lwrist -14.1535
lhand -15.8798 26.8952
lfingers 7.12502
lthumb 10.3162 56.6222
rfemur 3.89016 -1.55212 26.4803
rtibia 23.6153
rfoot 4.10026 0.782257
rtoes -22.2622
lfemur -41.5728 -3.59762 -14.6364
ltibia 43.6649
lfoot -9.47236 -6.85277
ltoes -13.7795
84
root 16.0377 23.4781 -6.66751 7.23272 -2.8848 -4.95156
lowerback 4.48946 1.85523 1.65188
upperback -0.370138 2.5514 -0.3878
thorax -2.80653 1.24306 -1.49711
lowerneck -21.8995 9.72219 7.95925
upperneck 21.3714 14.2307 -11.8314
head 12.1654 5.61553 -3.19669
rclavicle -3.26007e-014 6.36111e-015
rhumerus -39.1334 3.89132 -90.3528
rradius 32.9324
rwrist -2.20335
rhand -14.9028 21.6209
rfingers 7.12502
rthumb 11.2585 -8.05699
lclavicle -3.26007e-014 6.36111e-015
lhumerus -37.5288 24.7064 66.8753
lradius 19.2766
lwrist -13.278
lhand -15.6551 26.9599
lfingers 7.12502
lthumb 10.5328 56.676
rfemur 3.70281 -0.302168 26.8299
rtibia 24.4795
rfoot 5.43013 0.325989
rtoes -22.4386
lfemur -41.0782 -3.02587 -14.3778
ltibia 44.1544
lfoot -10.2753 -6.60429
ltoes -15.0271
85
root 16.0572 23.4848 -6.5121 7.36389 -3.06136 -4.97184
lowerback 3.41959 2.06685 1.48774
upperback 0.0548565 2.80587 -0.373759
thorax -1.7686 1.38641 -1.35133
lowerneck -22.1531 9.66266 7.56883
upperneck 21.2321 14.2628 -11.8971
head 12.1405 5.58366 -3.14333
rclavicle 1.0635e-014 -5.56597e-015
rhumerus -38.8393 4.05778 -90.187
rradius 32.8011
rwrist -2.5495
rhand -14.8473 21.3865
rfingers 7.12502
rthumb 11.312 -8.28847
lclavicle 1.0635e-014 -5.56597e-015
lhumerus -36.0378 23.649 68.4922
lradius 19.8559
lwrist -12.3178
lhand -15.8418 27.4209
lfingers 7.12502
lthumb 10.3528 57.1461
rfemur 3.32062 -0.227092 26.5951
rtibia 25.3956
rfoot 7.10993 0.61518
rtoes -21.3494
lfemur -40.8218 -3.09461 -14.4635
ltibia 44.6029
lfoot -10.8503 -6.37347
ltoes -14.3732
86
root 16.0786 23.4819 -6.3502 7.21829 -2.54853 -4.85855
lowerback 4.07504 1.68183 0.957429
upperback -0.993957 2.28685 -0.236297
thorax -3.25948 1.11733 -0.934876
lowerneck -19.2903 9.70833 8.37522
upperneck 20.864 14.3633 -12.4847
head 11.5811 5.7669 -3.56034
rclavicle -4.2043e-014 2.38542e-015
rhumerus -41.0963 5.23713 -90.711
rradius 32.736
rwrist -3.02441
rhand -14.8699 21.853
rfingers 7.12502
rthumb 11.2902 -7.82314
lclavicle -4.2043e-014 2.38542e-015
lhumerus -37.7359 22.3243 68.5059
lradius 20.6592
lwrist -11.07
lhand -16.4127 27.7064
lfingers 7.12502
lthumb 9.80204 57.4583
rfemur 3.2221 -0.609393 26.3719
rtibia 26.4561
rfoot 8.77522 0.77285
rtoes -18.647
lfemur -40.3464 -3.7572 -14.664
ltibia 45.0157
lfoot -11.2555 -6.16363
ltoes -13.3963
87
root 16.102 23.4759 -6.19103 7.05109 -2.38891 -4.71435
lowerback 3.98548 1.74161 1.12957
upperback -0.599824 2.36274 -0.561711
thorax -2.78046 1.15505 -1.3584
lowerneck -20.8406 9.57309 8.08378
upperneck 21.1769 14.0992 -12.1134
head 11.9085 5.58743 -3.37995
rclavicle -2.06736e-014 -1.59028e-015
rhumerus -40.3827 5.08798 -90.8826
rradius 32.2223
rwrist -2.89613
rhand -14.633 21.9931
rfingers 7.12502
rthumb 11.5187 -7.6704
lclavicle -2.06736e-014 -1.59028e-015
lhumerus -35.7076 21.6506 69.4727
lradius 20.6033
lwrist -10.8423
lhand -16.5949 27.5296
lfingers 7.12502
lthumb 9.62623 57.2896
rfemur 3.04216 -0.696994 26.0573
rtibia 27.714
rfoot 10.6058 1.13612
rtoes -15.9452
lfemur -39.8009 -4.18108 -14.9177
ltibia 45.3837
lfoot -11.6283 -5.86973
ltoes -12.3227
88
root 16.1237 23.4782 -6.03426 7.29264 -3.47991 -4.78868
lowerback 3.56407 1.92005 0.576068
upperback -1.18953 2.5781 -0.378336
thorax -3.1773 1.26876 -0.872048
lowerneck -18.9948 9.62807 8.26775
upperneck 21.1109 14.2567 -12.2032
head 11.5678 5.74786 -3.47356
rclavicle 5.86415e-015 -3.18055e-015
rhumerus -41.8192 6.31135 -91.2534
rradius 32.094
rwrist -2.5109
rhand -13.6869 20.7327
rfingers 7.12502
rthumb 12.431 -8.87762
lclavicle 5.86415e-015 -3.18055e-015
lhumerus -36.2439 21.0418 69.7784
lradius 20.9668
lwrist -10.0874
lhand -16.5426 27.0204
lfingers 7.12502
lthumb 9.6767 56.7781
rfemur 2.21002 0.0386227 25.6658
rtibia 29.165
rfoot 13.1384 1.77799
rtoes -11.616
lfemur -39.449 -3.71121 -14.9599
ltibia 45.7376
lfoot -12.1789 -5.36477
ltoes -11.2996
89
root 16.1408 23.4725 -5.89675 7.14399 -2.8042 -4.51701
lowerback 3.66281 1.90136 0.787438
upperback -1.05439 2.5459 -0.964041
thorax -3.05852 1.24427 -1.59024
lowerneck -19.7758 9.43179 8.60299
upperneck 21.5084 13.7622 -11.8176
head 11.7991 5.55111 -3.45749
rclavicle 7.25564e-015 0
rhumerus -41.6633 5.51209 -91.6734
rradius 31.7229
rwrist -1.51592
rhand -13.222 20.442
rfingers 7.12502
rthumb 12.8792 -9.14061
lclavicle 7.25564e-015 0
lhumerus -34.7678 19.0593 70.5532
lradius 21.2824
lwrist -9.2534
lhand -16.7036 26.4927
lfingers 7.12502
lthumb 9.5213 56.2575
rfemur 1.69374 -0.495671 25.2935
rtibia 30.8382
rfoot 10.9316 2.53438
rtoes -22.9543
lfemur -39.018 -4.67828 -15.2924
ltibia 46.035
lfoot -12.5559 -5.2072
ltoes -11.0626
90
root 16.1564 23.4728 -5.75307 6.97996 -2.71777 -4.22675
lowerback 3.65531 1.91895 0.706598
upperback -0.646824 2.55786 -1.27354
thorax -2.62347 1.25491 -1.85302
lowerneck -21.383 9.37015 8.23725
upperneck 21.8371 13.6062 -11.4099
head 12.1527 5.42001 -3.23004
rclavicle 2.41523e-014 -4.77083e-015
rhumerus -40.8448 5.50307 -91.8113
rradius 31.2592
rwrist -0.570552
rhand -13.0934 21.0692
rfingers 7.12502
rthumb 13.0032 -8.50554
lclavicle 2.41523e-014 -4.77083e-015
lhumerus -33.5052 17.7249 71.6019
lradius 22.1862
lwrist -8.34706
lhand -16.6873 26.8607
lfingers 7.12502
lthumb 9.53704 56.6248
rfemur 1.08641 -0.603936 24.8096
rtibia 32.7198
rfoot 11.9144 2.98497
rtoes -22.0585
lfemur -38.4165 -5.06402 -15.7629
ltibia 46.3174
lfoot -13.2203 -4.83603
ltoes -12.6458
91
root 16.167 23.471 -5.61089 6.86319 -2.57149 -3.9339
lowerback 3.67643 1.95367 0.397904
upperback -0.694946 2.58187 -1.55665
thorax -2.68469 1.26874 -1.97487
lowerneck -21.6539 9.424 8.3613
upperneck 22.2928 13.593 -11.0978
head 12.3608 5.43734 -3.13198
rclavicle 1.98785e-016 -9.54166e-015
rhumerus -40.8219 5.15455 -91.9411
rradius 30.8461
rwrist 0.335497
rhand -12.2996 20.8347
rfingers 7.12502
rthumb 13.7683 -8.68971
lclavicle 1.98785e-016 -9.54166e-015
lhumerus -32.1759 16.2195 72.2834
lradius 22.2748
lwrist -7.39153
lhand -16.6316 26.9543
lfingers 7.12502
lthumb 9.59085 56.716
rfemur 0.310564 -0.755106 24.4037
rtibia 34.752
rfoot 12.1382 3.29191
rtoes -24.9348
lfemur -37.9067 -5.30093 -16.2176
ltibia 46.5701
lfoot -13.834 -4.79377
ltoes -13.1811
92
root 16.1764 23.4678 -5.47493 6.73277 -2.38313 -3.71668
lowerback 3.73571 1.52094 -0.538155
upperback -1.18808 1.96732 -1.0882
thorax -3.29609 0.978984 -0.946147
lowerneck -19.3274 9.76937 8.29717
upperneck 21.7228 14.3539 -11.6318
head 11.8223 5.82353 -3.24424
rclavicle -1.25234e-014 -2.38542e-015
rhumerus -41.9304 6.83759 -91.9782
rradius 30.5925
rwrist 0.75293
rhand -11.4358 20.453
rfingers 7.12502
rthumb 14.6006 -9.01303
lclavicle -1.25234e-014 -2.38542e-015
lhumerus -33.1865 16.0813 72.7926
lradius 23.089
lwrist -6.29072
lhand -16.7579 26.6074
lfingers 7.12502
lthumb 9.46894 56.3747
rfemur -0.591649 -1.08704 24.06
rtibia 36.8996
rfoot 12.6812 3.52018
rtoes -27.3521
lfemur -37.402 -5.53793 -16.5377
ltibia 46.8108
lfoot -14.2734 -5.05567
ltoes -11.4606
